<svg width="466" height="99" viewBox="0 0 466 99" fill="none" xmlns="http://www.w3.org/2000/svg">
<path fill-rule="evenodd" clip-rule="evenodd" d="M130.231 17.7288C131.034 18.3818 131.834 18.8843 132.611 19.2276C133.575 19.6557 134.545 19.8719 135.496 19.8719C136.631 19.8719 137.505 19.5914 138.093 19.0406C138.692 18.4797 138.995 17.8252 138.995 17.0948C138.995 16.6638 138.914 16.2781 138.755 15.9407C138.592 15.6047 138.329 15.2979 137.976 15.0364C137.646 14.7881 137.233 14.5631 136.706 14.3498C136.228 14.1599 135.649 13.9481 134.955 13.71C134.181 13.4645 133.404 13.1884 132.643 12.886C131.931 12.6041 131.289 12.2243 130.735 11.7553C130.194 11.2995 129.75 10.7152 129.416 10.0154C129.084 9.32152 128.915 8.41287 128.915 7.31722C128.915 6.21281 129.097 5.19897 129.46 4.30492C129.822 3.41672 130.335 2.64684 130.982 2.01867C131.632 1.38904 132.443 0.889425 133.388 0.534435C135.253 -0.153631 137.654 -0.168237 140.19 0.470159C141.271 0.747723 142.321 1.13923 143.32 1.63593L141.366 5.47215C140.822 5.08356 140.267 4.77678 139.713 4.55911C138.006 3.89004 136.352 4.01567 135.316 4.79869C134.69 5.26763 134.359 5.92063 134.359 6.68467C134.359 7.23687 134.532 7.70289 134.872 8.06956C135.166 8.38803 135.55 8.6656 136.015 8.89203C136.47 9.11116 136.964 9.29669 137.483 9.44277C137.99 9.58886 138.492 9.74517 138.99 9.91171C140.904 10.5516 142.317 11.4047 143.186 12.4478C144.038 13.4762 144.47 14.8494 144.47 16.5265C144.47 17.6762 144.276 18.7251 143.896 19.6425C143.518 20.5526 142.957 21.3473 142.228 22.0003C141.497 22.6563 140.581 23.1734 139.503 23.5386C138.424 23.9082 137.169 24.0967 135.779 24.0967C133.039 24.0967 130.456 23.3093 128.094 21.7549L130.231 17.7288Z" fill="black"/>
<path fill-rule="evenodd" clip-rule="evenodd" d="M161.205 5.65978L157.721 15.6141H164.694L161.205 5.65978ZM165.978 19.3013H156.435L155.018 23.4355H149.531L158.188 0.663629H164.226L172.88 23.4355H167.395L165.978 19.3013Z" fill="black"/>
<path fill-rule="evenodd" clip-rule="evenodd" d="M184.645 7.93239V23.4351H179.48V0.663141H184.903L197.058 16.1629V0.663141H202.187V23.4351H196.799L184.645 7.93239Z" fill="black"/>
<path fill-rule="evenodd" clip-rule="evenodd" d="M241.62 18.6673C242.521 18.305 243.295 17.7995 243.922 17.1641C244.544 16.5301 245.025 15.7646 245.351 14.8924C245.68 14.0349 245.845 13.078 245.845 12.0481C245.845 11.0387 245.671 10.0847 245.336 9.21844C244.999 8.32877 244.508 7.5589 243.886 6.93219C243.272 6.29817 242.499 5.79272 241.588 5.42896C240.691 5.06959 239.674 4.88552 238.567 4.88552H236.644V19.2093H238.567C239.697 19.2093 240.727 19.0267 241.62 18.6673ZM231.484 0.663629H240.109C241.648 0.663629 243.107 0.976254 244.45 1.59274C245.808 2.21945 247.007 3.06237 248.015 4.09373C249.022 5.1178 249.827 6.3347 250.414 7.71667C250.996 9.0928 251.288 10.5507 251.288 12.0481C251.288 13.5236 251 14.9713 250.432 16.3489C249.859 17.7236 249.054 18.9492 248.042 19.9908C247.035 21.0368 245.836 21.8812 244.48 22.5006C243.135 23.1215 241.665 23.4355 240.109 23.4355H231.484V0.663629Z" fill="black"/>
<path fill-rule="evenodd" clip-rule="evenodd" d="M258.895 0.663615H264.054V23.4355H258.895V0.663615Z" fill="black"/>
<path fill-rule="evenodd" clip-rule="evenodd" d="M272.699 0.663141H285.193V4.88649H277.853V9.87387H284.785V14.0958H277.853V19.2102H285.193V23.4351H272.699V0.663141Z" fill="black"/>
<path fill-rule="evenodd" clip-rule="evenodd" d="M295.553 20.7615C294.515 19.7068 293.691 18.4242 293.114 16.9545C292.528 15.4718 292.234 13.8122 292.234 12.0183C292.234 10.2287 292.524 8.57502 293.099 7.10393C293.667 5.63431 294.487 4.3619 295.534 3.32322C296.583 2.28309 297.865 1.46208 299.344 0.880662C300.832 0.296317 302.52 -0.000236144 304.357 -0.000236144C306.732 -0.000236144 308.843 0.518368 310.628 1.54243C312.263 2.48031 313.604 3.92072 314.619 5.82714L309.721 7.8592C309.167 6.70074 308.459 5.83591 307.611 5.2837C306.663 4.66429 305.569 4.35021 304.357 4.35021C303.368 4.35021 302.447 4.54012 301.628 4.91556C300.804 5.29539 300.089 5.84029 299.514 6.5342C298.937 7.22518 298.482 8.05788 298.163 9.01328C297.843 9.96284 297.678 11.0366 297.678 12.2038C297.678 13.2512 297.819 14.2475 298.094 15.1591C298.373 16.0809 298.804 16.8961 299.371 17.5783C299.948 18.2664 300.666 18.804 301.505 19.1794C302.837 19.7769 304.672 19.9142 306.302 19.5286C306.934 19.3752 307.506 19.1268 307.996 18.7938C308.513 18.4446 308.939 17.9917 309.264 17.4498C309.589 16.9078 309.813 16.2504 309.927 15.4966L310.019 14.9152H304.865V11.1345H316.103C316.089 12.1892 316.039 13.1577 315.951 14.0138C315.851 14.9984 315.649 15.9246 315.348 16.7675C314.93 17.9465 314.349 19.0056 313.63 19.9172C312.907 20.8302 312.057 21.5986 311.094 22.2019C310.124 22.814 309.04 23.2888 307.877 23.6088C306.7 23.9316 305.455 24.0967 304.168 24.0967C302.398 24.0967 300.759 23.8016 299.302 23.2172C297.856 22.6402 296.597 21.8148 295.553 20.7615Z" fill="black"/>
<path fill-rule="evenodd" clip-rule="evenodd" d="M337.937 18.5892C338.801 18.2372 339.58 17.7405 340.235 17.1123C340.904 16.4783 341.434 15.723 341.814 14.8699C342.198 14.0109 342.395 13.0613 342.395 12.0475C342.395 11.0337 342.198 10.0841 341.814 9.2251C341.429 8.36758 340.898 7.61231 340.235 6.98268C339.576 6.35305 338.801 5.85928 337.932 5.50867C336.184 4.80307 334.146 4.80746 332.425 5.50867C331.56 5.85343 330.786 6.35305 330.131 6.98414C329.481 7.60939 328.96 8.3632 328.575 9.2251C328.191 10.0841 327.994 11.0337 327.994 12.0475C327.994 13.0613 328.191 14.0109 328.575 14.8699C328.96 15.7289 329.481 16.4812 330.131 17.1108C330.786 17.7419 331.556 18.2386 332.425 18.5892C333.285 18.9369 334.21 19.1137 335.176 19.1137C336.138 19.1137 337.067 18.9369 337.937 18.5892ZM326.08 20.6125C324.982 19.5256 324.107 18.2386 323.489 16.7851C322.866 15.3344 322.551 13.7421 322.551 12.0475C322.551 10.3544 322.866 8.76055 323.489 7.30992C324.107 5.85344 324.982 4.56496 326.08 3.48246C327.188 2.3985 328.524 1.53659 330.058 0.925949C331.601 0.312387 333.322 -0.000238931 335.176 -0.000238931C337.012 -0.000238931 338.728 0.312388 340.28 0.928872C341.837 1.54389 343.183 2.40288 344.29 3.48246C345.403 4.57226 346.282 5.85928 346.9 7.30992C347.523 8.76347 347.834 10.3587 347.834 12.0475C347.834 13.7362 347.523 15.3315 346.9 16.7851C346.287 18.2328 345.407 19.5213 344.29 20.6125C343.183 21.6936 341.837 22.5511 340.28 23.1676C338.728 23.7826 337.012 24.0967 335.176 24.0967C333.322 24.0967 331.601 23.7826 330.058 23.169C328.524 22.5584 327.188 21.6979 326.08 20.6125Z" fill="black"/>
<path fill-rule="evenodd" clip-rule="evenodd" d="M205.443 90.2035C205.443 90.7075 205.422 91.2231 205.386 91.752C205.346 92.2764 205.228 92.7585 205.029 93.1822C204.831 93.6131 204.533 93.9564 204.128 94.2267C203.723 94.4911 203.146 94.624 202.401 94.624C201.652 94.624 201.075 94.4911 200.663 94.2267C200.25 93.9564 199.947 93.6131 199.76 93.1822C199.567 92.7585 199.452 92.2764 199.415 91.752C199.376 91.2231 199.357 90.7075 199.357 90.2035V80.8116H194.875V90.8243C194.875 93.5109 195.49 95.4743 196.726 96.7145C197.962 97.9475 199.854 98.5684 202.401 98.5684C204.948 98.5684 206.834 97.9475 208.061 96.7145C209.288 95.4743 209.903 93.5109 209.903 90.8243V80.8116H205.443V90.2035Z" fill="black"/>
<path fill-rule="evenodd" clip-rule="evenodd" d="M231.808 87.5481C231.439 87.4225 231.068 87.3071 230.695 87.2033C230.323 87.0982 229.988 86.9711 229.692 86.825C229.391 86.6789 229.151 86.508 228.97 86.3078C228.783 86.1121 228.694 85.8623 228.694 85.5526C228.694 85.1143 228.876 84.7535 229.245 84.4774C229.607 84.2042 230.083 84.0669 230.662 84.0669C231.117 84.0669 231.591 84.1618 232.079 84.3517C232.567 84.5446 233.056 84.8324 233.542 85.2326L235.329 81.728C234.471 81.2679 233.582 80.926 232.651 80.6864C231.721 80.4498 230.828 80.3314 229.975 80.3314C229.06 80.3314 228.231 80.4673 227.493 80.7449C226.751 81.018 226.129 81.4037 225.619 81.8989C225.107 82.3971 224.709 82.9902 224.431 83.69C224.145 84.3824 224.003 85.1581 224.003 86.0127C224.003 86.8673 224.139 87.5729 224.408 88.1324C224.669 88.6861 225.026 89.1507 225.458 89.5173C225.892 89.8855 226.389 90.1777 226.944 90.3968C227.502 90.6203 228.069 90.8248 228.648 91.0045C229.139 91.1769 229.553 91.3274 229.896 91.4632C230.238 91.6005 230.515 91.751 230.729 91.9117C230.942 92.0724 231.095 92.2462 231.189 92.4376C231.28 92.629 231.325 92.854 231.325 93.1125C231.325 93.5406 231.147 93.9233 230.786 94.2564C230.431 94.5968 229.884 94.7633 229.151 94.7633C228.514 94.7633 227.864 94.6187 227.21 94.3294C226.552 94.0372 225.889 93.5946 225.218 93L223.293 96.6171C225.157 97.9173 227.179 98.5674 229.358 98.5674C230.41 98.5674 231.353 98.4228 232.181 98.1393C233.014 97.8632 233.713 97.4659 234.286 96.9517C234.857 96.4418 235.295 95.821 235.591 95.1051C235.887 94.3879 236.036 93.5888 236.036 92.7035C236.036 91.3887 235.697 90.3208 235.018 89.5057C234.339 88.6861 233.269 88.036 231.808 87.5481Z" fill="black"/>
<path fill-rule="evenodd" clip-rule="evenodd" d="M248.309 98.0854H258.126V94.2814H252.796V91.3041H257.823V87.5H252.796V84.6134H258.126V80.8108H248.309V98.0854Z" fill="black"/>
<path fill-rule="evenodd" clip-rule="evenodd" d="M281.517 90.2035C281.517 90.7075 281.5 91.2231 281.46 91.752C281.421 92.2764 281.304 92.7585 281.107 93.1822C280.911 93.6131 280.604 93.9564 280.201 94.2267C279.798 94.4911 279.224 94.624 278.474 94.624C277.729 94.624 277.149 94.4911 276.737 94.2267C276.325 93.9564 276.021 93.6131 275.834 93.1822C275.643 92.7585 275.529 92.2764 275.49 91.752C275.45 91.2231 275.433 90.7075 275.433 90.2035V80.8116H270.949V90.8243C270.949 93.5109 271.566 95.4743 272.806 96.7145C274.037 97.9475 275.928 98.5684 278.474 98.5684C281.025 98.5684 282.909 97.9475 284.135 96.7145C285.365 95.4743 285.98 93.5109 285.98 90.8243V80.8116H281.517V90.2035Z" fill="black"/>
<path fill-rule="evenodd" clip-rule="evenodd" d="M310.684 80.8108L305.515 90.023L301.746 80.8108H296.033L295.969 98.0854H300.109L300.004 88.1414L304.509 98.0854H306.293L311.466 88.1414L311.533 98.0854H315.679L315.441 80.8108H310.684Z" fill="black"/>
<path fill-rule="evenodd" clip-rule="evenodd" d="M177.421 80.8108L172.252 90.023L168.482 80.8108H162.773L162.707 98.0854H166.849L166.745 88.1414L171.247 98.0854H173.032L178.202 88.1414L178.273 98.0854H182.416L182.177 80.8108H177.421Z" fill="black"/>
<path d="M75.0489 26.3738H66.6664C59.5024 26.3738 54.6918 29.0238 51.5304 34.708L44.1692 47.6425H63.0625L75.0489 26.3738ZM430.875 49.8454C431.337 49.1822 431.891 48.2137 431.891 47.3693C431.891 45.6981 429.327 45.4833 427.093 45.4833C423.353 45.4833 420.405 47.2203 418.56 50.5072L417.833 51.7139H426.64C428.627 51.7139 430.009 51.1003 430.875 49.8454ZM178.073 60.8413C180.219 60.1986 181.87 58.8619 182.98 56.8722L186.216 51.1047C186.85 49.9901 187.135 49.1793 187.135 48.4825C187.135 46.3671 184.841 46.0808 182.598 46.0808C179.034 46.0808 176.306 47.5986 174.707 50.4663L171.475 56.2279C170.84 57.3397 170.556 58.1475 170.556 58.8531C170.556 59.7822 171.019 60.4455 171.929 60.8238L177.99 60.8662L178.073 60.8413ZM281.572 60.8413C283.72 60.1986 285.372 58.8648 286.484 56.8722L289.721 51.1032C290.352 49.9886 290.637 49.1793 290.637 48.4825C290.637 46.3671 288.348 46.0808 286.104 46.0808C282.538 46.0808 279.811 47.5986 278.212 50.4663L274.977 56.2279C274.34 57.3426 274.056 58.1519 274.056 58.8531C274.056 59.7822 274.518 60.444 275.434 60.8238L281.491 60.8662L281.572 60.8413ZM28.665 57.1994L31.1558 52.6912H20.7106C14.6568 52.6912 10.0916 56.8459 10.0916 62.3548C10.0916 63.4651 10.489 67.0909 15.5976 67.0909C21.0861 67.0909 26.0676 61.7617 28.665 57.1994ZM33.9957 47.6425L40.8998 35.4808C47.3349 24.1007 57.8297 21.7107 65.5021 21.7107H87.1565L65.6424 59.9955L65.1501 60.8662H81.7674L81.8652 60.4016C82.1077 59.2665 82.5796 58.0467 83.2311 56.8751L88.9051 46.8609H82.1034L84.9418 41.8078H97.1575C98.7426 41.8078 99.8075 42.4827 99.8075 43.4892C99.8075 43.8807 99.6819 44.3643 99.4935 44.6944L93.0233 56.2279C92.455 57.2184 92.1672 58.1022 92.1672 58.8531C92.1672 59.9488 92.8422 61.2533 96.0561 61.2533C99.7067 61.2533 103.667 58.4149 106.145 54.0206L113.034 41.8078H118.518C120.103 41.8078 121.167 42.4827 121.167 43.4892C121.167 43.8165 121.133 44.2445 120.854 44.6915L111.753 60.8662H126.988L134.928 46.8609H128.256L131.093 41.8078H137.764L143.458 31.6957H148.874C150.483 31.6957 151.524 32.3575 151.524 33.3801C151.524 33.7044 151.373 34.1879 151.151 34.5794L147.024 41.8078H159.849L157.011 46.8609H144.196L136.351 60.8662H160.54L160.616 60.3695C160.828 58.986 161.494 57.3119 162.657 55.2506L165.435 50.2632C170.513 41.3549 175.914 41.3549 184.863 41.3549C194.607 41.3549 198.067 41.9013 198.067 44.9793C198.067 46.2298 197.51 47.8777 196.457 49.7505L190.206 60.8662H201.855L212.586 41.8078H218.134C220.853 41.8078 220.853 43.368 220.853 43.8807V44.9852L221.769 44.3657C224.58 42.4637 228.393 41.4177 232.503 41.4177C239.169 41.4177 239.169 44.0984 239.169 44.9793V46.3116L240.148 45.4132C242.8 42.9867 247.675 41.4177 252.573 41.4177C259.233 41.4177 259.233 44.0984 259.233 44.9793C259.233 46.2459 258.694 47.8499 257.626 49.7476L251.373 60.8662H264.041L264.114 60.3724C264.333 58.9787 265.002 57.3061 266.159 55.2506L268.943 50.2632C274.015 41.3549 279.416 41.3549 288.365 41.3549C298.108 41.3549 301.569 41.9013 301.569 44.9793C301.569 46.2459 301.028 47.8499 299.962 49.7476L293.708 60.8662H308.559L316.496 46.8609H309.827L312.664 41.8078H319.33L325.024 31.6957H330.44C332.051 31.6957 333.09 32.3575 333.09 33.3801C333.09 33.7073 332.939 34.1879 332.714 34.5794L328.59 41.8078H341.412L338.574 46.8609H325.762L317.924 60.8662H339.49L350.266 41.8078H355.819C357.403 41.8078 358.465 42.4827 358.465 43.4892C358.465 43.7639 358.401 44.1904 358.085 44.6944L348.988 60.8662H365.331L367.661 41.8078H373.488C375.479 41.8078 375.75 42.6916 375.75 43.5564C375.75 43.6733 375.732 43.8033 375.718 43.9246C375.696 44.078 375.681 44.2226 375.685 44.2606L373.662 60.8662H376.08L393.296 41.8078H399.572C400.076 41.8078 401.252 41.8837 401.252 42.5835C401.252 42.9662 401.037 43.4308 400.63 43.9392L385.308 60.8618L404.384 60.9378L404.457 60.4381C404.622 59.379 405.056 58.1198 405.743 56.6983L406.15 55.8569H399.239L401.606 51.7139H408.545L409.287 50.3158C414.359 41.4075 419.76 41.4075 428.709 41.4075C435.699 41.4075 442.172 41.8779 442.172 45.2963C442.172 46.8434 440.502 49.6029 439.503 51.2508C439.316 51.5576 439.151 51.8322 439.014 52.0645C437.595 54.51 435.081 55.8569 431.951 55.8569H415.558L415.389 56.152C414.88 57.0402 414.661 57.7268 414.661 58.4528C414.661 60.089 416.08 60.9173 418.871 60.9173H465.578L462.74 65.9704H410.201C409.84 65.9704 409.497 65.9485 409.117 65.9178H243.572C241.911 65.9178 240.148 65.3729 240.148 64.3649C240.148 64.064 240.223 63.8171 240.401 63.5498L247.19 51.4962C247.825 50.3787 248.11 49.5693 248.11 48.871C248.11 47.7739 247.546 46.4694 244.868 46.4694C241.54 46.4694 237.846 49.3151 235.228 53.8993L228.472 65.9178H223.509C221.846 65.9178 220.08 65.3729 220.08 64.3649C220.08 64.064 220.153 63.8171 220.327 63.5498L227.125 51.4962C227.757 50.3845 228.041 49.5766 228.041 48.871C228.041 47.7739 227.478 46.4694 224.8 46.4694C221.49 46.4694 217.823 49.2903 215.232 53.8307L210.053 62.9727C208.737 65.3116 207.537 65.9178 204.218 65.9178H103.371C100.656 65.9178 100.656 64.3576 100.656 63.8449V62.8106L99.7681 63.3438C96.8026 65.1246 93.1416 65.9178 87.9015 65.9178H52.7824L60.2255 52.6912H41.4651L41.2971 52.998C34.209 66.0581 24.9734 72.1396 12.2318 72.1396C6.65131 72.1396 0 70.4757 0 62.5476C0 55.1294 7.30285 47.6425 23.6221 47.6425H33.9957ZM361.449 31.8257C363.061 31.8257 364.099 32.4875 364.099 33.5101C364.099 33.7833 364.035 34.2084 363.724 34.7051L362.209 37.3302H356.656C355.073 37.3302 354.006 36.6524 354.006 35.6459C354.006 35.3741 354.071 34.9476 354.382 34.4494L355.897 31.8257H361.449Z" fill="black"/>
</svg>
